<?xml version="1.0" encoding="UTF-8"?><svg id="Layer_1" xmlns="http://www.w3.org/2000/svg" viewBox="0 0 40 40"><defs><style>.cls-1{fill:#fff;}</style></defs><path class="cls-1" d="M38.14,2.22V22.11c-.62,1.69-1.84,2.38-3.61,2.25-.89-.06-1.79-.01-2.74-.01,0,.46,0,.77,0,1.09,0,3.9,0,7.8,0,11.7,0,1.63-1.08,2.79-2.65,2.79-6.3,.02-12.61,.02-18.91,0-1.42,0-2.47-1.05-2.59-2.48-.04-.44-.02-.88-.02-1.32,0-1.66,0-3.33,0-5.1-1.03,0-1.96,.02-2.89,0-1.7-.05-2.84-1.1-2.85-2.7-.02-6.34-.02-12.67,0-19.01,0-1.39,.98-2.59,2.34-2.63,2.83-.09,5.67-.03,8.54-.03v3.41H5.29V27.52h2.32c0-2.92,0-5.76,0-8.6,0-2.39,.95-3.33,3.37-3.34,.96,0,1.91,0,2.91,0,0-4.09,.05-8.05-.02-12.01-.03-1.7,.48-2.96,2.1-3.64h20.06c1.05,.45,1.76,1.2,2.11,2.29Zm-15.55,13.32v-5.53h-4.14v-3.31c.15-.03,.23-.06,.32-.06,1.5,0,2.99-.02,4.49,0,1.64,.03,2.74,1.12,2.77,2.78,.03,1.73,0,3.46,.01,5.19,0,.31,.03,.62,.04,.97,1.01,0,1.92-.01,2.82,0,1.79,.03,2.88,1.13,2.89,2.93,0,.78,0,1.56,0,2.34h2.84V3.43H17.35V15.54h5.24Zm3.44,3.51c0,2.93,0,5.77,0,8.61,0,2.39-.98,3.37-3.34,3.38-3.54,0-7.09,0-10.63,0-.31,0-.63,0-.97,0v5.45H28.35v-12.07l-1.19-.14v-3.3l1.14-.12c.33-1.82,.28-1.88-1.47-1.86-.23,0-.46,.03-.81,.05Zm-4.51,5.28c-1.74,0-3.38,.06-5.01-.02-1.56-.08-2.56-1.19-2.61-2.77-.03-.81,0-1.63,0-2.49h-2.81v8.48h11.52v-8.48h-5.25v1.87h4.18v3.41Z"/></svg>