<?xml version="1.0" encoding="UTF-8"?>
<!DOCTYPE svg PUBLIC "-//W3C//DTD SVG 1.1//EN" "http://www.w3.org/Graphics/SVG/1.1/DTD/svg11.dtd">
<svg xmlns="http://www.w3.org/2000/svg" version="1.1" width="32px" height="32px" style="shape-rendering:geometricPrecision; text-rendering:geometricPrecision; image-rendering:optimizeQuality; fill-rule:evenodd; clip-rule:evenodd" xmlns:xlink="http://www.w3.org/1999/xlink">
<g><path style="opacity:0.871" fill="#18303c" d="M 25.5,5.5 C 24.8333,5.5 24.5,5.83333 24.5,6.5C 21.3979,6.84598 18.5645,6.17931 16,4.5C 13.0655,6.19274 9.89885,7.19274 6.5,7.5C 6.5,9.5 6.5,11.5 6.5,13.5C 7.10978,14.391 7.44312,15.391 7.5,16.5C 7.5,17.1667 7.83333,17.5 8.5,17.5C 9.69365,21.5321 12.1937,24.5321 16,26.5C 17.9552,25.5467 19.6218,24.2134 21,22.5C 28.6709,9.10479 30.0042,9.43813 25,23.5C 22.5609,26.6118 19.5609,28.9452 16,30.5C 5.99851,24.8344 1.49851,16.1677 2.5,4.5C 7.19726,3.86692 11.6973,2.53359 16,0.5C 18.5891,1.69652 21.2558,2.69652 24,3.5C 25.0299,3.83611 25.5299,4.50278 25.5,5.5 Z"/></g>
<g><path style="opacity:0.886" fill="#3eb449" d="M 8.5,17.5 C 7.83333,17.5 7.5,17.1667 7.5,16.5C 7.44312,15.391 7.10978,14.391 6.5,13.5C 9.26026,10.8415 11.5936,11.3415 13.5,15C 14.5,15.6667 15.5,15.6667 16.5,15C 19.3714,12.2972 22.0381,9.46387 24.5,6.5C 25.1667,6.5 25.5,6.16667 25.5,5.5C 28.4444,4.27316 29.9444,5.27316 30,8.5C 25.5,13 21,17.5 16.5,22C 15.5,22.6667 14.5,22.6667 13.5,22C 11.9625,20.2927 10.2959,18.7927 8.5,17.5 Z"/></g>
</svg>
